<svg xmlns="http://www.w3.org/2000/svg" width="760" height="260" viewBox="0 0 760 260" font-family="Helvetica, Arial, sans-serif" font-size="13">
  <defs><marker id="a" viewBox="0 0 10 10" refX="9" refY="5" markerWidth="7" markerHeight="7" orient="auto"><path d="M0,0 L10,5 L0,10 z" fill="#444"/></marker></defs>
  <rect width="760" height="260" fill="#fff"/>
  <rect x="20" y="20" width="230" height="220" rx="8" fill="#f3f3f3" stroke="#777"/>
  <text x="35" y="44" font-weight="bold">--query-field-names</text>
  <text x="35" y="72">uuid, name, driver_version</text>
  <text x="35" y="102">utilization.gpu</text>
  <text x="35" y="132">memory.used</text>
  <text x="35" y="162">temperature.gpu</text>
  <text x="35" y="192">power.draw</text>
  <text x="35" y="222" fill="#555">... 14 fields in all</text>
  <rect x="300" y="95" width="120" height="60" rx="6" fill="#fff" stroke="#777"/>
  <text x="318" y="120">nvidia-smi</text>
  <text x="318" y="140" fill="#555">every scrape</text>
  <line x1="252" y1="125" x2="298" y2="125" stroke="#444" marker-end="url(#a)"/>
  <line x1="422" y1="125" x2="468" y2="125" stroke="#444" marker-end="url(#a)"/>
  <rect x="470" y="20" width="270" height="220" rx="8" fill="#eaf0f8" stroke="#4a6c9b"/>
  <text x="485" y="44" font-weight="bold">/metrics, one series per GPU uuid</text>
  <text x="485" y="72">nvidia_smi_gpu_info</text>
  <text x="485" y="102">nvidia_smi_utilization_gpu_ratio</text>
  <text x="485" y="132">nvidia_smi_memory_used_bytes</text>
  <text x="485" y="162">nvidia_smi_temperature_gpu</text>
  <text x="485" y="192">nvidia_smi_power_draw_watts</text>
  <text x="485" y="222" fill="#555">...</text>
</svg>
